<svg xmlns="http://www.w3.org/2000/svg" viewBox="0 0 112.24 56.92"><defs></defs><title>yKYe0p</title><g id="Layer_2" data-name="Layer 2"><g id="Layer_1-2" data-name="Layer 1"><g id="yKYe0p"><path class="cls-1" d="M25.26,0h78.92c.73,0,1.61-.06,2.48,0A5.49,5.49,0,0,1,111.8,3.7c1.48,4-1.21,7.6-5.81,7.58-2,0-2.75.67-3.21,2.5a32.21,32.21,0,0,0-.17,15.52c.52,2.19,1.19,3.4,3.86,3.24a5.52,5.52,0,0,1,5.77,5.6,5.79,5.79,0,0,1-5.55,5.64c-.75.06-1.5,0-2.25,0H42.92c0,3.66,0,7.05,0,10.43,0,2.5-1.34,3.31-3.56,2.2S35.16,54,33,53.09a4.44,4.44,0,0,0-3.15,0c-2.2.94-4.24,2.25-6.39,3.33s-3.48.37-3.52-2.18c0-2.82-.07-5.65,0-8.48.05-1.47-.26-2.13-1.95-2.39A20.77,20.77,0,0,1,7,37.88C3,34.24,1.06,29.6,0,24.47V19C1.28,13.3,3.76,8.31,8.69,4.52,12.3,2.43,15,0,25.26,0ZM99.08,11.35H35.92c-4.65,0-9.31-.11-14,.08a10.44,10.44,0,0,0-9.91,12.12c.6,4.2,4.13,7.94,7.84,8.16,0-1.83.06-3.66,0-5.48s.9-2.75,2.7-2.75q13.34,0,26.69,0c1.49,0,2.9.6,2.53,2.25-.18.81-1.61,1.75-2.58,1.89a42.16,42.16,0,0,1-6.17.09v4.62H98.93c-.71-4.61-.71-4.61-5.26-4.61-5.57,0-11.14,0-16.71,0-1.41,0-2.79-.23-2.72-2.11s1.33-2.11,2.79-2.12H97.38V20.33H88.32c-1.57,0-3.31-.12-3.33-2.11s1.65-2.18,3.26-2.16c3.22,0,6.45,0,9.71,0Zm-79.46,28c.72-2.05.06-2.85-1.88-3.49A14.69,14.69,0,0,1,8.48,17.35C10.51,11,16.2,7.1,23.62,7.09q40.38,0,80.76,0c1.27,0,3.56.94,3.48-1.44-.07-2.15-2.28-1.42-3.63-1.42Q64.11,4.12,24,4.16a37.82,37.82,0,0,0-5.21.38C10.64,5.7,4,13.65,4.16,21.9,4.36,31,11,38.47,19.62,39.31ZM38.68,27.89H24.14V51.06c2.57-1.14,5-3.05,7.35-3s4.72,2,7.19,3.14ZM43,39.33a5,5,0,0,0,.92.19q30.92,0,61.85,0c.74,0,1.47-.87,2.21-1.33a24.52,24.52,0,0,0-2.17-1.49c-.32-.18-.81,0-1.23,0H43Z"/></g></g></g></svg>