<svg xmlns="http://www.w3.org/2000/svg" viewBox="0 0 59.73 63.14"><defs></defs><title>zZJsfo</title><g id="Layer_2" data-name="Layer 2"><g id="Layer_1-2" data-name="Layer 1"><g id="zZJsfo"><path class="cls-1" d="M.47,60.24c.54-.42,1-.74,1.42-1.09L35,32.6c1.29-1,1.29-1,0-2Q18.42,17.27,1.79,4c-.33-.26-.62-.88-1.11-.62S.34,4.17.34,4.63C.27,8.39.17,12.14.15,15.9Q0,36.65,0,57.39A5.85,5.85,0,0,0,.47,60.24ZM2,.77c.36.31.65.59,1,.85Q21.14,16.16,39.28,30.69c.68.55,1.2.85.16,1.68q-16,12.74-32,25.56c-1.83,1.46-3.65,3-5.54,4.48a4.29,4.29,0,0,0,3.6.58,13,13,0,0,0,3.72-1.52l37.92-20c3.2-1.69,6.43-3.31,9.58-5.09,4-2.24,4-6.81,0-9.14-.47-.29-1-.55-1.45-.82L10.76,2.38a22.49,22.49,0,0,0-4.27-2C5-.06,3.51-.31,2,.77Z"/><path class="cls-1" d="M4,52.32q0-18.21.13-36.4c0-1.63,0-3.27.06-4.9L29.89,31.57Z"/><path class="cls-1" d="M8.13,19.28,23.49,31.57l-1.33,1.06L8,44l.09-24.68M.91,3.28a.53.53,0,0,0-.23.06c-.42.23-.34.83-.34,1.29C.27,8.39.17,12.14.15,15.9Q0,36.65,0,57.39a5.85,5.85,0,0,0,.47,2.85c.54-.41,1-.74,1.42-1.09L35,32.6c1.29-1,1.29-1,0-2Q18.42,17.27,1.79,4c-.28-.22-.52-.68-.88-.68Z"/><path class="cls-1" d="M2,.77C3.51-.31,5-.06,6.49.37a22.49,22.49,0,0,1,4.27,2L55.33,26.45c.49.27,1,.53,1.45.82,3.93,2.33,3.95,6.9,0,9.14-3.15,1.78-6.38,3.4-9.58,5.09l-37.92,20A13,13,0,0,1,5.54,63a4.29,4.29,0,0,1-3.6-.58c1.89-1.53,3.71-3,5.54-4.48q16-12.8,32-25.56c1-.83.52-1.13-.16-1.68Q21.13,16.17,3,1.62C2.69,1.36,2.4,1.08,2,.77Z"/></g></g></g></svg>