<svg xmlns="http://www.w3.org/2000/svg" viewBox="0 0 148.61 148.61"><defs><style>.cls-1{fill:#fff;}</style></defs><title>Asset 17</title><g id="Layer_2" data-name="Layer 2"><g id="Layer_1-2" data-name="Layer 1"><circle cx="74.31" cy="74.31" r="74.31"/><g id="ieTjWk"><path d="M62.36,82.9c-6.84,3-12.61,5.92-18.64,8.14-4.8,1.76-8.46,4.49-9.78,9.38-1.88,7-3.38,14.11-4.7,21.24-.21,1.15,1,3,2.11,3.89a68.54,68.54,0,0,0,34.74,13.93,70.41,70.41,0,0,0,51.47-14.14,4.77,4.77,0,0,0,1.81-3.71c-1.22-6.76-2.61-13.5-4.3-20.16-1.31-5.14-4.69-8.5-9.86-10.31a95.41,95.41,0,0,1-14-6.08c-2.89-1.57-5-2.71-7.94-.07-1.59,1.42-4.09,2-6.29,2.54C70.74,89.05,65.94,85.9,62.36,82.9Zm12-58.31c-12.93.05-21.51,10.46-20.49,21.09.24,2.5.18,5,.18,7.55,0,2-.61,4.1-.1,5.93,1.15,4.14,2.26,8.47,4.42,12.1a44.59,44.59,0,0,0,9,10.63c3.65,3.16,8.21,3,12.6.86C87.75,78.92,96.38,64,96,55.38a85.46,85.46,0,0,1,.27-9.73c.4-5.84-.76-11.48-6-14.41C84.51,28,78,26.05,74.4,24.59Z"/><path class="cls-1" d="M62.36,82.9c3.58,3,8.38,6.15,14.63,4.65,2.2-.52,4.7-1.12,6.29-2.54,3-2.64,5-1.5,7.94.07a95.41,95.41,0,0,0,14,6.08c5.17,1.81,8.55,5.17,9.86,10.31,1.69,6.66,3.08,13.4,4.3,20.16a4.77,4.77,0,0,1-1.81,3.71,70.41,70.41,0,0,1-51.47,14.14,68.54,68.54,0,0,1-34.74-13.93c-1.1-.84-2.32-2.74-2.11-3.89,1.32-7.13,2.82-14.24,4.7-21.24,1.32-4.89,5-7.62,9.78-9.38C49.75,88.82,55.52,85.92,62.36,82.9Z"/><path class="cls-1" d="M74.4,24.59C78,26.05,84.51,28,90.28,31.24c5.2,2.93,6.36,8.57,6,14.41A85.46,85.46,0,0,0,96,55.38C96.38,64,87.75,78.92,80,82.75c-4.39,2.18-9,2.3-12.6-.86a44.59,44.59,0,0,1-9-10.63c-2.16-3.63-3.27-8-4.42-12.1-.51-1.83.1-3.94.1-5.93,0-2.52.06-5-.18-7.55C52.89,35.05,61.47,24.64,74.4,24.59Z"/></g></g></g></svg>